<?xml version="1.0" standalone="no"?>
<!DOCTYPE svg PUBLIC "-//W3C//DTD SVG 20010904//EN"
 "http://www.w3.org/TR/2001/REC-SVG-20010904/DTD/svg10.dtd">
<svg version="1.0" xmlns="http://www.w3.org/2000/svg"
 width="500.000000pt" height="500.000000pt" viewBox="0 0 500.000000 500.000000"
 preserveAspectRatio="xMidYMid meet">

<g transform="translate(0.000000,500.000000) scale(0.100000,-0.100000)"
fill="#000000" stroke="none">
<path d="M0 3180 l0 -1820 63 0 62 0 238 1037 c131 571 238 1041 237 1046 0 4
-38 7 -84 7 l-84 0 7 28 7 27 439 0 439 0 226 -775 c124 -426 228 -781 231
-789 4 -11 350 1477 349 1502 0 4 -38 7 -85 7 -47 0 -85 2 -85 4 0 3 4 16 10
30 l10 26 215 0 c118 0 215 -2 215 -4 0 -3 -4 -16 -10 -30 -9 -25 -12 -26 -95
-26 -47 0 -85 -1 -85 -2 0 -2 -112 -487 -248 -1078 l-248 -1075 -221 -3 -221
-2 -19 62 c-10 35 -147 494 -303 1020 -157 527 -287 958 -290 958 -3 0 -106
-438 -229 -973 -123 -534 -226 -978 -228 -984 -4 -10 16 -13 81 -13 92 0 100
-5 76 -51 -10 -18 -23 -19 -190 -19 l-180 0 0 -645 0 -645 2500 0 2500 0 0
1725 0 1725 -59 0 -59 0 -27 -112 c-14 -62 -122 -531 -239 -1043 l-213 -930
83 -3 c89 -3 97 -9 74 -53 -10 -18 -26 -19 -485 -19 l-475 0 0 23 c0 40 12 46
100 49 l85 3 226 980 c125 539 225 982 223 984 -2 2 -6 2 -9 0 -2 -3 -214
-457 -470 -1009 -257 -553 -471 -1010 -477 -1017 -15 -18 -387 -19 -393 0 -2
6 -20 428 -40 937 -35 925 -46 1118 -58 1090 -3 -8 -106 -447 -227 -975 -122
-528 -223 -968 -226 -977 -5 -16 3 -18 80 -18 92 0 100 -6 76 -51 -10 -18 -23
-19 -220 -19 -226 0 -227 0 -200 51 9 16 22 19 95 19 l84 0 11 53 c6 28 113
497 239 1042 l227 990 -84 3 -83 3 3 27 3 27 430 0 430 0 22 -803 c11 -442 23
-805 25 -807 1 -1 172 361 378 806 l375 809 387 0 388 0 0 745 0 745 -2500 0
-2500 0 0 -1820z"/>
</g>
</svg>
